<svg width="869" height="284" viewBox="0 0 869 284" fill="none" xmlns="http://www.w3.org/2000/svg">
<g filter="url(#filter0_di)">
<path d="M109 94.9286C109 93.4777 108.107 92.1942 106.824 91.6362C106.377 91.4687 105.875 91.3571 105.429 91.3571C104.48 91.3571 103.587 91.692 102.917 92.4174L80.4286 114.85V105.643C80.4286 96.7701 73.2299 89.5714 64.3571 89.5714H25.0714C16.1987 89.5714 9 96.7701 9 105.643V144.929C9 153.801 16.1987 161 25.0714 161H64.3571C73.2299 161 80.4286 153.801 80.4286 144.929V135.665L102.917 158.154C103.587 158.879 104.48 159.214 105.429 159.214C105.875 159.214 106.377 159.103 106.824 158.935C108.107 158.377 109 157.094 109 155.643V94.9286Z" fill="#4B3385"/>
</g>
<g filter="url(#filter1_di)">
<path d="M17.1333 268C13.5974 268 10.4824 266.284 7.78844 262.853C5.26281 259.421 4 255.189 4 250.156V17.8438C4 12.8109 5.26281 8.57874 7.78844 5.14724C10.4824 1.71575 13.5974 0 17.1333 0C20.8375 0 23.9524 1.71575 26.4781 5.14724C29.0037 8.57874 30.2665 12.8109 30.2665 17.8438V120.789L113.865 7.20613C115.885 4.46094 117.737 2.63081 119.421 1.71575C121.105 0.571915 122.873 0 124.725 0C128.934 0 131.965 1.71575 133.817 5.14724C135.669 8.57874 136.343 12.6965 135.838 17.5006C135.333 22.076 133.733 26.3081 131.039 30.1972L66.6355 118.044L132.302 239.519C134.322 243.408 135.164 247.64 134.827 252.215C134.491 256.562 133.312 260.336 131.292 263.539C129.271 266.513 126.577 268 123.21 268C118.495 268 114.875 265.484 112.349 260.451L48.451 142.75L30.2665 167.457V250.156C30.2665 255.189 29.0037 259.421 26.4781 262.853C23.9524 266.284 20.8375 268 17.1333 268Z" fill="#4B3385"/>
</g>
<path fill-rule="evenodd" clip-rule="evenodd" d="M50.3782 113.994L128.113 8.37772L127.398 7.40715L17.1332 157.221V7.89244H16.123V261.137H17.1332V159.163L49.6558 114.975L127.349 258.113L128.162 257.298L50.3782 113.994Z" fill="#68E262"/>
<g style="mix-blend-mode:multiply">
<path d="M135.6 125.2C135.6 116.267 137.667 108.267 141.8 101.2C146.067 94.1333 152 88.6 159.6 84.6C167.2 80.4667 175.933 78.4 185.8 78.4C195.8 78.4 204.467 80.4667 211.8 84.6C219.133 88.6 224.733 94.1333 228.6 101.2C232.6 108.267 234.6 116.267 234.6 125.2C234.6 134.133 232.6 142.2 228.6 149.4C224.733 156.467 219.133 162.067 211.8 166.2C204.467 170.333 195.667 172.4 185.4 172.4C175.8 172.4 167.2 170.533 159.6 166.8C152.133 163.067 146.267 157.667 142 150.6C137.733 143.533 135.6 135.067 135.6 125.2ZM163.8 125.4C163.8 132.333 165.8 138.133 169.8 142.8C173.8 147.333 178.867 149.6 185 149.6C191.533 149.6 196.733 147.333 200.6 142.8C204.467 138.133 206.4 132.333 206.4 125.4C206.4 118.467 204.467 112.733 200.6 108.2C196.733 103.533 191.533 101.2 185 101.2C178.867 101.2 173.8 103.533 169.8 108.2C165.8 112.733 163.8 118.467 163.8 125.4ZM282.058 82.6L284.058 96.6C287.124 91.1333 291.458 86.7333 297.058 83.4C302.658 80.0667 309.458 78.4 317.458 78.4C325.724 78.4 332.591 80.8667 338.058 85.8C343.658 90.6 346.524 96.8667 346.658 104.6V170H318.658V115C318.524 111.133 317.458 108.067 315.458 105.8C313.591 103.4 310.391 102.2 305.858 102.2C299.324 102.2 294.124 105.267 290.258 111.4C286.524 117.4 284.658 125.067 284.658 134.4V170H256.658V82.6H282.058ZM411.502 171.8L359.102 82.6H392.302L412.702 124.2L430.702 82.6H461.902L412.302 171.8H411.502ZM518.408 172.4C507.741 172.4 498.674 170.4 491.208 166.4C483.874 162.4 478.274 156.867 474.408 149.8C470.541 142.733 468.608 134.6 468.608 125.4C468.608 116.6 470.874 108.667 475.408 101.6C479.941 94.5333 486.008 88.9333 493.608 84.8C501.208 80.5333 509.674 78.4 519.008 78.4C531.541 78.4 541.808 82.0667 549.808 89.4C557.941 96.6 563.208 107.067 565.608 120.8L501.608 141.2C505.874 146.133 511.674 148.6 519.008 148.6C522.074 148.6 525.008 148.067 527.808 147C530.741 145.933 533.608 144.533 536.408 142.8L548.808 163.6C544.141 166.267 539.074 168.4 533.608 170C528.274 171.6 523.208 172.4 518.408 172.4ZM496.208 123.8C496.208 124.467 496.208 125.067 496.208 125.6L534.608 112.6C533.408 109.267 531.474 106.4 528.808 104C526.141 101.467 522.141 100.2 516.808 100.2C510.541 100.2 505.541 102.333 501.808 106.6C498.074 110.867 496.208 116.6 496.208 123.8ZM611.155 82.6L613.355 102.6C615.888 97.5333 619.355 93.2 623.755 89.6C628.155 85.8667 632.488 83.0667 636.755 81.2C641.021 79.2 644.288 78.2 646.555 78.2L645.155 106.2C638.621 105.4 633.021 106.467 628.355 109.4C623.688 112.333 620.088 116.2 617.555 121C615.021 125.8 613.755 130.733 613.755 135.8V170H585.955V82.6H611.155ZM681.586 105.4C676.786 105.4 672.586 103.667 668.986 100.2C665.386 96.7333 663.586 92.0667 663.586 86.2V74.2H684.586V77C684.586 79.8 685.053 81.4667 685.986 82C687.053 82.4 688.853 82.6 691.386 82.6H746.786L702.386 147.2H746.186V170H657.586L701.986 105.4H681.586ZM815.478 172.4C804.811 172.4 795.745 170.4 788.278 166.4C780.945 162.4 775.345 156.867 771.478 149.8C767.611 142.733 765.678 134.6 765.678 125.4C765.678 116.6 767.945 108.667 772.478 101.6C777.011 94.5333 783.078 88.9333 790.678 84.8C798.278 80.5333 806.745 78.4 816.078 78.4C828.611 78.4 838.878 82.0667 846.878 89.4C855.011 96.6 860.278 107.067 862.678 120.8L798.678 141.2C802.945 146.133 808.745 148.6 816.078 148.6C819.145 148.6 822.078 148.067 824.878 147C827.811 145.933 830.678 144.533 833.478 142.8L845.878 163.6C841.211 166.267 836.145 168.4 830.678 170C825.345 171.6 820.278 172.4 815.478 172.4ZM793.278 123.8C793.278 124.467 793.278 125.067 793.278 125.6L831.678 112.6C830.478 109.267 828.545 106.4 825.878 104C823.211 101.467 819.211 100.2 813.878 100.2C807.611 100.2 802.611 102.333 798.878 106.6C795.145 110.867 793.278 116.6 793.278 123.8Z" fill="#4B3385"/>
</g>
<defs>
<filter id="filter0_di" x="5" y="89.5714" width="108" height="79.4286" filterUnits="userSpaceOnUse" color-interpolation-filters="sRGB">
<feFlood flood-opacity="0" result="BackgroundImageFix"/>
<feColorMatrix in="SourceAlpha" type="matrix" values="0 0 0 0 0 0 0 0 0 0 0 0 0 0 0 0 0 0 127 0"/>
<feOffset dy="4"/>
<feGaussianBlur stdDeviation="2"/>
<feColorMatrix type="matrix" values="0 0 0 0 0 0 0 0 0 0 0 0 0 0 0 0 0 0 0.25 0"/>
<feBlend mode="normal" in2="BackgroundImageFix" result="effect1_dropShadow"/>
<feBlend mode="normal" in="SourceGraphic" in2="effect1_dropShadow" result="shape"/>
<feColorMatrix in="SourceAlpha" type="matrix" values="0 0 0 0 0 0 0 0 0 0 0 0 0 0 0 0 0 0 127 0" result="hardAlpha"/>
<feOffset dy="4"/>
<feGaussianBlur stdDeviation="2"/>
<feComposite in2="hardAlpha" operator="arithmetic" k2="-1" k3="1"/>
<feColorMatrix type="matrix" values="0 0 0 0 0 0 0 0 0 0 0 0 0 0 0 0 0 0 0.25 0"/>
<feBlend mode="normal" in2="shape" result="effect2_innerShadow"/>
</filter>
<filter id="filter1_di" x="0" y="0" width="140" height="276" filterUnits="userSpaceOnUse" color-interpolation-filters="sRGB">
<feFlood flood-opacity="0" result="BackgroundImageFix"/>
<feColorMatrix in="SourceAlpha" type="matrix" values="0 0 0 0 0 0 0 0 0 0 0 0 0 0 0 0 0 0 127 0"/>
<feOffset dy="4"/>
<feGaussianBlur stdDeviation="2"/>
<feColorMatrix type="matrix" values="0 0 0 0 0 0 0 0 0 0 0 0 0 0 0 0 0 0 0.25 0"/>
<feBlend mode="normal" in2="BackgroundImageFix" result="effect1_dropShadow"/>
<feBlend mode="normal" in="SourceGraphic" in2="effect1_dropShadow" result="shape"/>
<feColorMatrix in="SourceAlpha" type="matrix" values="0 0 0 0 0 0 0 0 0 0 0 0 0 0 0 0 0 0 127 0" result="hardAlpha"/>
<feOffset dx="1" dy="2"/>
<feGaussianBlur stdDeviation="2"/>
<feComposite in2="hardAlpha" operator="arithmetic" k2="-1" k3="1"/>
<feColorMatrix type="matrix" values="0 0 0 0 0.993241 0 0 0 0 1 0 0 0 0 0.992908 0 0 0 0.25 0"/>
<feBlend mode="normal" in2="shape" result="effect2_innerShadow"/>
</filter>
</defs>
</svg>
