<svg width="868" height="220" viewBox="0 0 868 220" fill="none" xmlns="http://www.w3.org/2000/svg">
<g filter="url(#filter0_di)">
<path d="M109 66.9286C109 65.4777 108.107 64.1942 106.824 63.6362C106.377 63.4687 105.875 63.3571 105.429 63.3571C104.48 63.3571 103.587 63.692 102.917 64.4174L80.4286 86.8504V77.6429C80.4286 68.7701 73.2299 61.5714 64.3571 61.5714H25.0714C16.1987 61.5714 9 68.7701 9 77.6429V116.929C9 125.801 16.1987 133 25.0714 133H64.3571C73.2299 133 80.4286 125.801 80.4286 116.929V107.665L102.917 130.154C103.587 130.879 104.48 131.214 105.429 131.214C105.875 131.214 106.377 131.103 106.824 130.935C108.107 130.377 109 129.094 109 127.643V66.9286Z" fill="white"/>
</g>
<g filter="url(#filter1_di)">
<path d="M16.2313 212C12.9383 212 10.0373 210.643 7.52827 207.928C5.17609 205.214 4 201.866 4 197.885V14.1152C4 10.134 5.17609 6.78616 7.52827 4.0717C10.0373 1.35723 12.9383 0 16.2313 0C19.6812 0 22.5822 1.35723 24.9344 4.0717C27.2866 6.78616 28.4627 10.134 28.4627 14.1152V95.5493L106.32 5.70037C108.201 3.52881 109.926 2.08109 111.495 1.35723C113.063 0.45241 114.709 0 116.434 0C120.354 0 123.177 1.35723 124.902 4.0717C126.627 6.78616 127.254 10.0435 126.784 13.8438C126.313 17.4631 124.824 20.8109 122.315 23.8873L62.334 93.3777L123.491 189.47C125.372 192.546 126.156 195.894 125.843 199.513C125.529 202.952 124.432 205.938 122.55 208.471C120.668 210.824 118.159 212 115.023 212C110.632 212 107.261 210.009 104.908 206.028L45.3983 112.922L28.4627 132.466V197.885C28.4627 201.866 27.2866 205.214 24.9344 207.928C22.5822 210.643 19.6812 212 16.2313 212Z" fill="white"/>
</g>
<path fill-rule="evenodd" clip-rule="evenodd" d="M47.8205 90.174L120.217 6.62714L119.551 5.85938L16.8586 124.369V6.24326H15.9177V206.571H16.8586V125.905L47.1477 90.9505L119.505 204.179L120.263 203.534L47.8205 90.174Z" fill="#4B3385"/>
<g style="mix-blend-mode:multiply">
<path d="M134.6 105.2C134.6 96.2667 136.667 88.2667 140.8 81.2C145.067 74.1333 151 68.6 158.6 64.6C166.2 60.4667 174.933 58.4 184.8 58.4C194.8 58.4 203.467 60.4667 210.8 64.6C218.133 68.6 223.733 74.1333 227.6 81.2C231.6 88.2667 233.6 96.2667 233.6 105.2C233.6 114.133 231.6 122.2 227.6 129.4C223.733 136.467 218.133 142.067 210.8 146.2C203.467 150.333 194.667 152.4 184.4 152.4C174.8 152.4 166.2 150.533 158.6 146.8C151.133 143.067 145.267 137.667 141 130.6C136.733 123.533 134.6 115.067 134.6 105.2ZM162.8 105.4C162.8 112.333 164.8 118.133 168.8 122.8C172.8 127.333 177.867 129.6 184 129.6C190.533 129.6 195.733 127.333 199.6 122.8C203.467 118.133 205.4 112.333 205.4 105.4C205.4 98.4667 203.467 92.7333 199.6 88.2C195.733 83.5333 190.533 81.2 184 81.2C177.867 81.2 172.8 83.5333 168.8 88.2C164.8 92.7333 162.8 98.4667 162.8 105.4ZM281.058 62.6L283.058 76.6C286.124 71.1333 290.458 66.7333 296.058 63.4C301.658 60.0667 308.458 58.4 316.458 58.4C324.724 58.4 331.591 60.8667 337.058 65.8C342.658 70.6 345.524 76.8667 345.658 84.6V150H317.658V95C317.524 91.1333 316.458 88.0667 314.458 85.8C312.591 83.4 309.391 82.2 304.858 82.2C298.324 82.2 293.124 85.2667 289.258 91.4C285.524 97.4 283.658 105.067 283.658 114.4V150H255.658V62.6H281.058ZM410.502 151.8L358.102 62.6H391.302L411.702 104.2L429.702 62.6H460.902L411.302 151.8H410.502ZM517.408 152.4C506.741 152.4 497.674 150.4 490.208 146.4C482.874 142.4 477.274 136.867 473.408 129.8C469.541 122.733 467.608 114.6 467.608 105.4C467.608 96.6 469.874 88.6667 474.408 81.6C478.941 74.5333 485.008 68.9333 492.608 64.8C500.208 60.5333 508.674 58.4 518.008 58.4C530.541 58.4 540.808 62.0667 548.808 69.4C556.941 76.6 562.208 87.0667 564.608 100.8L500.608 121.2C504.874 126.133 510.674 128.6 518.008 128.6C521.074 128.6 524.008 128.067 526.808 127C529.741 125.933 532.608 124.533 535.408 122.8L547.808 143.6C543.141 146.267 538.074 148.4 532.608 150C527.274 151.6 522.208 152.4 517.408 152.4ZM495.208 103.8C495.208 104.467 495.208 105.067 495.208 105.6L533.608 92.6C532.408 89.2667 530.474 86.4 527.808 84C525.141 81.4667 521.141 80.2 515.808 80.2C509.541 80.2 504.541 82.3333 500.808 86.6C497.074 90.8667 495.208 96.6 495.208 103.8ZM610.155 62.6L612.355 82.6C614.888 77.5333 618.355 73.2 622.755 69.6C627.155 65.8667 631.488 63.0667 635.755 61.2C640.021 59.2 643.288 58.2 645.555 58.2L644.155 86.2C637.621 85.4 632.021 86.4667 627.355 89.4C622.688 92.3333 619.088 96.2 616.555 101C614.021 105.8 612.755 110.733 612.755 115.8V150H584.955V62.6H610.155ZM680.586 85.4C675.786 85.4 671.586 83.6667 667.986 80.2C664.386 76.7333 662.586 72.0667 662.586 66.2V54.2H683.586V57C683.586 59.8 684.053 61.4667 684.986 62C686.053 62.4 687.853 62.6 690.386 62.6H745.786L701.386 127.2H745.186V150H656.586L700.986 85.4H680.586ZM814.478 152.4C803.811 152.4 794.745 150.4 787.278 146.4C779.945 142.4 774.345 136.867 770.478 129.8C766.611 122.733 764.678 114.6 764.678 105.4C764.678 96.6 766.945 88.6667 771.478 81.6C776.011 74.5333 782.078 68.9333 789.678 64.8C797.278 60.5333 805.745 58.4 815.078 58.4C827.611 58.4 837.878 62.0667 845.878 69.4C854.011 76.6 859.278 87.0667 861.678 100.8L797.678 121.2C801.945 126.133 807.745 128.6 815.078 128.6C818.145 128.6 821.078 128.067 823.878 127C826.811 125.933 829.678 124.533 832.478 122.8L844.878 143.6C840.211 146.267 835.145 148.4 829.678 150C824.345 151.6 819.278 152.4 814.478 152.4ZM792.278 103.8C792.278 104.467 792.278 105.067 792.278 105.6L830.678 92.6C829.478 89.2667 827.545 86.4 824.878 84C822.211 81.4667 818.211 80.2 812.878 80.2C806.611 80.2 801.611 82.3333 797.878 86.6C794.145 90.8667 792.278 96.6 792.278 103.8Z" fill="white"/>
</g>
<defs>
<filter id="filter0_di" x="5" y="61.5714" width="108" height="79.4286" filterUnits="userSpaceOnUse" color-interpolation-filters="sRGB">
<feFlood flood-opacity="0" result="BackgroundImageFix"/>
<feColorMatrix in="SourceAlpha" type="matrix" values="0 0 0 0 0 0 0 0 0 0 0 0 0 0 0 0 0 0 127 0"/>
<feOffset dy="4"/>
<feGaussianBlur stdDeviation="2"/>
<feColorMatrix type="matrix" values="0 0 0 0 0 0 0 0 0 0 0 0 0 0 0 0 0 0 0.25 0"/>
<feBlend mode="normal" in2="BackgroundImageFix" result="effect1_dropShadow"/>
<feBlend mode="normal" in="SourceGraphic" in2="effect1_dropShadow" result="shape"/>
<feColorMatrix in="SourceAlpha" type="matrix" values="0 0 0 0 0 0 0 0 0 0 0 0 0 0 0 0 0 0 127 0" result="hardAlpha"/>
<feOffset dy="4"/>
<feGaussianBlur stdDeviation="2"/>
<feComposite in2="hardAlpha" operator="arithmetic" k2="-1" k3="1"/>
<feColorMatrix type="matrix" values="0 0 0 0 0 0 0 0 0 0 0 0 0 0 0 0 0 0 0.25 0"/>
<feBlend mode="normal" in2="shape" result="effect2_innerShadow"/>
</filter>
<filter id="filter1_di" x="0" y="0" width="130.935" height="220" filterUnits="userSpaceOnUse" color-interpolation-filters="sRGB">
<feFlood flood-opacity="0" result="BackgroundImageFix"/>
<feColorMatrix in="SourceAlpha" type="matrix" values="0 0 0 0 0 0 0 0 0 0 0 0 0 0 0 0 0 0 127 0"/>
<feOffset dy="4"/>
<feGaussianBlur stdDeviation="2"/>
<feColorMatrix type="matrix" values="0 0 0 0 0 0 0 0 0 0 0 0 0 0 0 0 0 0 0.25 0"/>
<feBlend mode="normal" in2="BackgroundImageFix" result="effect1_dropShadow"/>
<feBlend mode="normal" in="SourceGraphic" in2="effect1_dropShadow" result="shape"/>
<feColorMatrix in="SourceAlpha" type="matrix" values="0 0 0 0 0 0 0 0 0 0 0 0 0 0 0 0 0 0 127 0" result="hardAlpha"/>
<feOffset dx="1" dy="2"/>
<feGaussianBlur stdDeviation="2"/>
<feComposite in2="hardAlpha" operator="arithmetic" k2="-1" k3="1"/>
<feColorMatrix type="matrix" values="0 0 0 0 0.993241 0 0 0 0 1 0 0 0 0 0.992908 0 0 0 0.25 0"/>
<feBlend mode="normal" in2="shape" result="effect2_innerShadow"/>
</filter>
</defs>
</svg>
